<svg width="175" height="51" viewBox="0 0 175 51" fill="none" xmlns="http://www.w3.org/2000/svg">
<path d="M29.738 7.12192H39.7746V50.5042H29.738V7.12192ZM10.0366 50.5042H0V7.12192H10.0366V50.5042ZM30.4815 32.7175H9.29313V24.2269H30.4815V32.7175Z" fill="#42A5F5"/>
<path d="M64.293 48.5675V42.0601L63.6734 40.6347V28.9835C63.6734 26.9177 63.0332 25.3063 61.7529 24.1495C60.5138 22.9926 58.5932 22.4142 55.9911 22.4142C54.2151 22.4142 52.4597 22.7034 50.725 23.2818C49.0316 23.8189 47.586 24.5626 46.3882 25.5129L42.9188 18.7577C44.7361 17.4769 46.9252 16.4853 49.4859 15.7829C52.0467 15.0805 54.6488 14.7293 57.2922 14.7293C62.3724 14.7293 66.3168 15.9275 69.1254 18.3238C71.934 20.7202 73.3383 24.4593 73.3383 29.5413V48.5675H64.293ZM54.1325 49.0633C51.5304 49.0633 49.3001 48.6295 47.4414 47.7618C45.5828 46.8529 44.1579 45.634 43.1666 44.1053C42.1753 42.5766 41.6797 40.862 41.6797 38.9614C41.6797 36.9782 42.1547 35.2429 43.1046 33.7555C44.0959 32.2682 45.6448 31.1113 47.7512 30.285C49.8576 29.4173 52.6043 28.9835 55.9911 28.9835H64.8506V34.6232H57.0443C54.7727 34.6232 53.2032 34.995 52.3358 35.7387C51.5098 36.4824 51.0967 37.412 51.0967 38.5276C51.0967 39.7671 51.5717 40.7587 52.5217 41.5024C53.513 42.2048 54.8553 42.5559 56.5487 42.5559C58.1595 42.5559 59.6051 42.1841 60.8855 41.4404C62.1659 40.6554 63.0952 39.5192 63.6734 38.0318L65.1603 42.494C64.4582 44.6424 63.1778 46.2744 61.3192 47.39C59.4606 48.5055 57.065 49.0633 54.1325 49.0633Z" fill="#42A5F5"/>
<path d="M76.1159 45.9852V0H85.7808V45.9852H76.1159Z" fill="#42A5F5"/>
<path d="M143.605 47.7722C140.053 47.7722 136.893 47.0285 134.126 45.5411C131.4 44.0537 129.231 42.0292 127.621 39.4675C126.051 36.8646 125.266 33.9105 125.266 30.6052C125.266 27.2585 126.051 24.3044 127.621 21.7428C129.231 19.1398 131.4 17.1153 134.126 15.6693C136.893 14.1819 140.053 13.4382 143.605 13.4382C147.115 13.4382 150.254 14.1819 153.022 15.6693C155.789 17.1153 157.957 19.1192 159.527 21.6808C161.096 24.2424 161.881 27.2172 161.881 30.6052C161.881 33.9105 161.096 36.8646 159.527 39.4675C157.957 42.0292 155.789 44.0537 153.022 45.5411C150.254 47.0285 147.115 47.7722 143.605 47.7722ZM143.605 39.8394C145.216 39.8394 146.661 39.4675 147.941 38.7238C149.222 37.9801 150.234 36.9266 150.977 35.5631C151.721 34.1584 152.092 32.5057 152.092 30.6052C152.092 28.6633 151.721 27.0106 150.977 25.6472C150.234 24.2837 149.222 23.2302 147.941 22.4865C146.661 21.7428 145.216 21.3709 143.605 21.3709C141.994 21.3709 140.548 21.7428 139.268 22.4865C137.988 23.2302 136.955 24.2837 136.17 25.6472C135.427 27.0106 135.055 28.6633 135.055 30.6052C135.055 32.5057 135.427 34.1584 136.17 35.5631C136.955 36.9266 137.988 37.9801 139.268 38.7238C140.548 39.4675 141.994 39.8394 143.605 39.8394Z" fill="#42A5F5"/>
<path d="M105.529 45.1899C101.977 45.1899 98.817 44.4462 96.0497 42.9588C93.3237 41.4714 91.1553 39.4469 89.5445 36.8853C87.975 34.2823 87.1902 31.3282 87.1902 28.0229C87.1902 24.6763 87.975 21.7221 89.5445 19.1605C91.1553 16.5576 93.3237 14.5331 96.0497 13.087C98.817 11.5996 101.977 10.8559 105.529 10.8559C109.039 10.8559 112.178 11.5996 114.946 13.087C117.713 14.5331 119.881 16.5369 121.451 19.0985C123.02 21.6602 123.805 24.6349 123.805 28.0229C123.805 31.3282 123.02 34.2823 121.451 36.8853C119.881 39.4469 117.713 41.4714 114.946 42.9588C112.178 44.4462 109.039 45.1899 105.529 45.1899ZM105.529 37.2571C107.139 37.2571 108.585 36.8853 109.865 36.1416C111.146 35.3979 112.158 34.3443 112.901 32.9809C113.645 31.5761 114.016 29.9234 114.016 28.0229C114.016 26.081 113.645 24.4284 112.901 23.0649C112.158 21.7015 111.146 20.6479 109.865 19.9042C108.585 19.1605 107.139 18.7887 105.529 18.7887C103.918 18.7887 102.472 19.1605 101.192 19.9042C99.9115 20.6479 98.8789 21.7015 98.0942 23.0649C97.3507 24.4284 96.979 26.081 96.979 28.0229C96.979 29.9234 97.3507 31.5761 98.0942 32.9809C98.8789 34.3443 99.9115 35.3979 101.192 36.1416C102.472 36.8853 103.918 37.2571 105.529 37.2571Z" fill="#42A5F5"/>
<path d="M165.211 35.4444L163.291 7.12192H174.814L172.894 35.4444H165.211ZM169.052 51C167.318 51 165.893 50.4422 164.778 49.3267C163.662 48.2111 163.105 46.889 163.105 45.3603C163.105 43.7903 163.662 42.4888 164.778 41.4559C165.893 40.3817 167.318 39.8446 169.052 39.8446C170.828 39.8446 172.253 40.3817 173.327 41.4559C174.442 42.4888 175 43.7903 175 45.3603C175 46.889 174.442 48.2111 173.327 49.3267C172.253 50.4422 170.828 51 169.052 51Z" fill="#42A5F5"/>
</svg>
