<svg width="512" height="149" viewBox="0 0 512 149" fill="none" xmlns="http://www.w3.org/2000/svg">
<path d="M87.005 20.8072H116.369V147.551H87.005V20.8072ZM29.3642 147.551H0V20.8072H29.3642V147.551ZM89.1801 95.5863H27.1891V70.7806H89.1801V95.5863Z" fill="#42A5F5"/>
<path d="M188.103 141.893V122.882L186.29 118.717V84.6773C186.29 78.6418 184.417 73.9342 180.671 70.5543C177.046 67.1745 171.427 65.4846 163.814 65.4846C158.618 65.4846 153.482 66.3295 148.407 68.0194C143.452 69.5887 139.223 71.7614 135.719 74.5377L125.568 54.8018C130.885 51.0598 137.29 48.1628 144.782 46.1108C152.274 44.0587 159.887 43.0327 167.62 43.0327C182.484 43.0327 194.024 46.5333 202.241 53.5344C210.458 60.5355 214.567 71.4596 214.567 86.3068V141.893H188.103ZM158.376 143.342C150.763 143.342 144.238 142.074 138.8 139.539C133.362 136.884 129.193 133.323 126.293 128.857C123.393 124.39 121.943 119.381 121.943 113.828C121.943 108.034 123.333 102.965 126.112 98.6191C129.012 94.2736 133.544 90.8938 139.706 88.4796C145.869 85.9447 153.905 84.6773 163.814 84.6773H189.734V101.154H166.895C160.249 101.154 155.657 102.24 153.12 104.413C150.703 106.586 149.494 109.302 149.494 112.561C149.494 116.182 150.884 119.079 153.663 121.252C156.564 123.304 160.491 124.33 165.445 124.33C170.158 124.33 174.388 123.244 178.134 121.071C181.88 118.778 184.599 115.458 186.29 111.112L190.641 124.149C188.586 130.426 184.84 135.194 179.402 138.453C173.965 141.712 166.956 143.342 158.376 143.342Z" fill="#42A5F5"/>
<path d="M222.693 134.349V0H250.97V134.349H222.693Z" fill="#42A5F5"/>
<path d="M420.146 139.57C409.754 139.57 400.51 137.397 392.414 133.051C384.438 128.706 378.094 122.791 373.381 115.307C368.789 107.702 366.493 99.0718 366.493 89.4151C366.493 79.6377 368.789 71.007 373.381 63.523C378.094 55.9184 384.438 50.0036 392.414 45.7788C400.51 41.4333 409.754 39.2606 420.146 39.2606C430.418 39.2606 439.602 41.4333 447.698 45.7788C455.794 50.0036 462.138 55.858 466.73 63.342C471.322 70.8259 473.618 79.517 473.618 89.4151C473.618 99.0718 471.322 107.702 466.73 115.307C462.138 122.791 455.794 128.706 447.698 133.051C439.602 137.397 430.418 139.57 420.146 139.57ZM420.146 116.394C424.859 116.394 429.089 115.307 432.835 113.134C436.581 110.962 439.541 107.884 441.716 103.9C443.891 99.796 444.979 94.9677 444.979 89.4151C444.979 83.7418 443.891 78.9134 441.716 74.93C439.541 70.9466 436.581 67.8686 432.835 65.6958C429.089 63.523 424.859 62.4367 420.146 62.4367C415.434 62.4367 411.204 63.523 407.458 65.6958C403.712 67.8686 400.691 70.9466 398.395 74.93C396.22 78.9134 395.132 83.7418 395.132 89.4151C395.132 94.9677 396.22 99.796 398.395 103.9C400.691 107.884 403.712 110.962 407.458 113.134C411.204 115.307 415.434 116.394 420.146 116.394Z" fill="#42A5F5"/>
<path d="M308.747 132.025C298.355 132.025 289.11 129.853 281.014 125.507C273.038 121.162 266.694 115.247 261.982 107.763C257.39 100.158 255.094 91.5275 255.094 81.8708C255.094 72.0934 257.39 63.4627 261.982 55.9787C266.694 48.3741 273.038 42.4593 281.014 38.2345C289.11 33.889 298.355 31.7163 308.747 31.7163C319.018 31.7163 328.202 33.889 336.298 38.2345C344.395 42.4593 350.739 48.3137 355.331 55.7977C359.923 63.2816 362.219 71.9727 362.219 81.8708C362.219 91.5275 359.923 100.158 355.331 107.763C350.739 115.247 344.395 121.162 336.298 125.507C328.202 129.853 319.018 132.025 308.747 132.025ZM308.747 108.849C313.46 108.849 317.689 107.763 321.435 105.59C325.181 103.417 328.142 100.339 330.317 96.3558C332.492 92.2517 333.579 87.4234 333.579 81.8708C333.579 76.1975 332.492 71.3691 330.317 67.3857C328.142 63.4023 325.181 60.3243 321.435 58.1515C317.689 55.9787 313.46 54.8924 308.747 54.8924C304.034 54.8924 299.805 55.9787 296.059 58.1515C292.312 60.3243 289.291 63.4023 286.996 67.3857C284.82 71.3691 283.733 76.1975 283.733 81.8708C283.733 87.4234 284.82 92.2517 286.996 96.3558C289.291 100.339 292.312 103.417 296.059 105.59C299.805 107.763 304.034 108.849 308.747 108.849Z" fill="#42A5F5"/>
<path d="M483.361 103.553L477.742 20.8072H511.456L505.837 103.553H483.361ZM494.599 149C489.524 149 485.355 147.37 482.092 144.111C478.829 140.852 477.198 136.989 477.198 132.523C477.198 127.936 478.829 124.134 482.092 121.116C485.355 117.978 489.524 116.409 494.599 116.409C499.795 116.409 503.964 117.978 507.106 121.116C510.369 124.134 512 127.936 512 132.523C512 136.989 510.369 140.852 507.106 144.111C503.964 147.37 499.795 149 494.599 149Z" fill="#42A5F5"/>
</svg>
