<svg width="183" height="59" viewBox="0 0 183 59" fill="none" xmlns="http://www.w3.org/2000/svg">
<g filter="url(#filter0_d_2_71)">
<path d="M33.738 7.12192H43.7746V50.5042H33.738V7.12192ZM14.0366 50.5042H4V7.12192H14.0366V50.5042ZM34.4815 32.7175H13.2931V24.2269H34.4815V32.7175Z" fill="#42A5F5"/>
<path d="M68.293 48.5675V42.0601L67.6734 40.6347V28.9835C67.6734 26.9177 67.0332 25.3063 65.7529 24.1495C64.5138 22.9926 62.5932 22.4142 59.9911 22.4142C58.2151 22.4142 56.4597 22.7034 54.725 23.2818C53.0316 23.8189 51.586 24.5626 50.3882 25.5129L46.9188 18.7577C48.7361 17.4769 50.9252 16.4853 53.4859 15.7829C56.0467 15.0805 58.6488 14.7293 61.2922 14.7293C66.3724 14.7293 70.3168 15.9275 73.1254 18.3238C75.934 20.7202 77.3383 24.4593 77.3383 29.5413V48.5675H68.293ZM58.1325 49.0633C55.5304 49.0633 53.3001 48.6295 51.4414 47.7618C49.5828 46.8529 48.1579 45.634 47.1666 44.1053C46.1753 42.5766 45.6797 40.862 45.6797 38.9614C45.6797 36.9782 46.1547 35.2429 47.1046 33.7555C48.0959 32.2682 49.6448 31.1113 51.7512 30.285C53.8576 29.4173 56.6043 28.9835 59.9911 28.9835H68.8506V34.6232H61.0443C58.7727 34.6232 57.2032 34.995 56.3358 35.7387C55.5098 36.4824 55.0967 37.412 55.0967 38.5276C55.0967 39.7671 55.5717 40.7587 56.5217 41.5024C57.513 42.2048 58.8553 42.5559 60.5487 42.5559C62.1595 42.5559 63.6051 42.1841 64.8855 41.4404C66.1659 40.6554 67.0952 39.5192 67.6734 38.0318L69.1603 42.494C68.4582 44.6424 67.1778 46.2744 65.3192 47.39C63.4606 48.5055 61.065 49.0633 58.1325 49.0633Z" fill="#42A5F5"/>
<path d="M80.1159 45.9852V0H89.7808V45.9852H80.1159Z" fill="#42A5F5"/>
<path d="M147.605 47.7722C144.053 47.7722 140.893 47.0285 138.126 45.5411C135.4 44.0537 133.231 42.0292 131.621 39.4675C130.051 36.8646 129.266 33.9105 129.266 30.6052C129.266 27.2585 130.051 24.3044 131.621 21.7428C133.231 19.1398 135.4 17.1153 138.126 15.6693C140.893 14.1819 144.053 13.4382 147.605 13.4382C151.115 13.4382 154.254 14.1819 157.022 15.6693C159.789 17.1153 161.957 19.1192 163.527 21.6808C165.096 24.2424 165.881 27.2172 165.881 30.6052C165.881 33.9105 165.096 36.8646 163.527 39.4675C161.957 42.0292 159.789 44.0537 157.022 45.5411C154.254 47.0285 151.115 47.7722 147.605 47.7722ZM147.605 39.8394C149.216 39.8394 150.661 39.4675 151.941 38.7238C153.222 37.9801 154.234 36.9266 154.977 35.5631C155.721 34.1584 156.092 32.5057 156.092 30.6052C156.092 28.6633 155.721 27.0106 154.977 25.6472C154.234 24.2837 153.222 23.2302 151.941 22.4865C150.661 21.7428 149.216 21.3709 147.605 21.3709C145.994 21.3709 144.548 21.7428 143.268 22.4865C141.988 23.2302 140.955 24.2837 140.17 25.6472C139.427 27.0106 139.055 28.6633 139.055 30.6052C139.055 32.5057 139.427 34.1584 140.17 35.5631C140.955 36.9266 141.988 37.9801 143.268 38.7238C144.548 39.4675 145.994 39.8394 147.605 39.8394Z" fill="#42A5F5"/>
<path d="M109.529 45.1899C105.977 45.1899 102.817 44.4462 100.05 42.9588C97.3237 41.4714 95.1553 39.4469 93.5445 36.8853C91.975 34.2823 91.1902 31.3282 91.1902 28.0229C91.1902 24.6763 91.975 21.7221 93.5445 19.1605C95.1553 16.5576 97.3237 14.5331 100.05 13.087C102.817 11.5996 105.977 10.8559 109.529 10.8559C113.039 10.8559 116.178 11.5996 118.946 13.087C121.713 14.5331 123.881 16.5369 125.451 19.0985C127.02 21.6602 127.805 24.6349 127.805 28.0229C127.805 31.3282 127.02 34.2823 125.451 36.8853C123.881 39.4469 121.713 41.4714 118.946 42.9588C116.178 44.4462 113.039 45.1899 109.529 45.1899ZM109.529 37.2571C111.139 37.2571 112.585 36.8853 113.865 36.1416C115.146 35.3979 116.158 34.3443 116.901 32.9809C117.645 31.5761 118.016 29.9234 118.016 28.0229C118.016 26.081 117.645 24.4284 116.901 23.0649C116.158 21.7015 115.146 20.6479 113.865 19.9042C112.585 19.1605 111.139 18.7887 109.529 18.7887C107.918 18.7887 106.472 19.1605 105.192 19.9042C103.911 20.6479 102.879 21.7015 102.094 23.0649C101.351 24.4284 100.979 26.081 100.979 28.0229C100.979 29.9234 101.351 31.5761 102.094 32.9809C102.879 34.3443 103.911 35.3979 105.192 36.1416C106.472 36.8853 107.918 37.2571 109.529 37.2571Z" fill="#42A5F5"/>
<path d="M169.211 35.4444L167.291 7.12192H178.814L176.894 35.4444H169.211ZM173.052 51C171.318 51 169.893 50.4422 168.778 49.3267C167.662 48.2111 167.105 46.889 167.105 45.3603C167.105 43.7903 167.662 42.4888 168.778 41.4559C169.893 40.3817 171.318 39.8446 173.052 39.8446C174.828 39.8446 176.253 40.3817 177.327 41.4559C178.442 42.4888 179 43.7903 179 45.3603C179 46.889 178.442 48.2111 177.327 49.3267C176.253 50.4422 174.828 51 173.052 51Z" fill="#42A5F5"/>
</g>
<defs>
<filter id="filter0_d_2_71" x="0" y="0" width="183" height="59" filterUnits="userSpaceOnUse" color-interpolation-filters="sRGB">
<feFlood flood-opacity="0" result="BackgroundImageFix"/>
<feColorMatrix in="SourceAlpha" type="matrix" values="0 0 0 0 0 0 0 0 0 0 0 0 0 0 0 0 0 0 127 0" result="hardAlpha"/>
<feOffset dy="4"/>
<feGaussianBlur stdDeviation="2"/>
<feComposite in2="hardAlpha" operator="out"/>
<feColorMatrix type="matrix" values="0 0 0 0 0 0 0 0 0 0 0 0 0 0 0 0 0 0 0.25 0"/>
<feBlend mode="normal" in2="BackgroundImageFix" result="effect1_dropShadow_2_71"/>
<feBlend mode="normal" in="SourceGraphic" in2="effect1_dropShadow_2_71" result="shape"/>
</filter>
</defs>
</svg>
